<?xml version="1.0" encoding="UTF-8" standalone="yes"?>
<!DOCTYPE svg PUBLIC "-//W3C//DTD SVG 1.1//EN" "http://www.w3.org/Graphics/SVG/1.1/DTD/svg11.dtd">

<svg width="500" height="500" viewBox="0 0 500 500" xmlns="http://www.w3.org/2000/svg" xmlns:xlink="http://www.w3.org/1999/xlink" version="1.1" baseProfile="full">
    <g transform="scale(1,-1) translate(0,-500)">
        <path d="M 227.616015 223.198054 C 337.536359 136.341425 337.536359 136.341425 473.166717 235.065279 C 327.719061 159.912252 327.719061 159.912252 246.383985 238.221589 M 227.616015 223.198054 C 286.218767 126.691761 286.218767 126.691761 181.045850 1.226007 C 307.068453 111.952230 307.068453 111.952230 246.383985 238.221589 M 240.923534 219.864577 C 363.102286 300.327481 363.102286 300.327481 315.862738 454.455133 C 336.983518 297.353347 336.983518 297.353347 233.076466 241.555066 M 240.923534 219.864577 C 354.335189 249.390691 354.335189 249.390691 438.001275 116.845651 C 375.841210 265.115160 375.841210 265.115160 233.076466 241.555066 M 248.808862 231.518860 C 214.399140 368.104297 214.399140 368.104297 49.573135 364.636571 C 208.074152 342.695355 208.074152 342.695355 225.191138 229.900783 M 248.808862 231.518860 C 260.298368 346.273294 260.298368 346.273294 417.179770 389.821709 C 252.740133 370.731081 252.740133 370.731081 225.191138 229.900783 M 240.374744 242.055079 C 96.929614 246.006618 96.929614 246.006618 42.301090 89.735793 C 119.139325 233.277162 119.139325 233.277162 233.625256 219.364564 M 240.374744 242.055079 C 134.063994 283.451106 134.063994 283.451106 147.355947 442.910546 C 107.886728 282.842381 107.886728 282.842381 233.625256 219.364564 M 227.276845 236.912538 C 173.032601 102.769286 173.032601 102.769286 304.096320 9.656330 C 193.083945 120.310992 193.083945 120.310992 246.723155 224.507105 M 227.276845 236.912538 C 150.083682 147.742256 150.083682 147.742256 1.417158 202.745195 C 141.463476 122.908255 141.463476 122.908255 246.723155 224.507105" transform="scale(1.000000,1.000000) translate(13.000000,26.000000)" opacity="1.000000"></path>
    </g>
</svg>